<?xml version="1.0" encoding="UTF-8"?>
<svg version="1.1" xmlns="http://www.w3.org/2000/svg" width="3000" height="878">
<path d="M0 0 C162.69 0 325.38 0 493 0 C493 53.79 493 107.58 493 163 C546.79 163 600.58 163 656 163 C656 271.57 656 380.14 656 492 C602.21 492 548.42 492 493 492 C493 545.46 493 598.92 493 654 C546.79 654 600.58 654 656 654 C656 708.45 656 762.9 656 819 C601.88 819 547.76 819 492 819 C492 764.88 492 710.76 492 655 C437.88 655 383.76 655 328 655 C328 601.21 328 547.42 328 492 C273.88 492 219.76 492 164 492 C164 437.55 164 383.1 164 327 C218.45 327 272.9 327 329 327 C329 381.12 329 435.24 329 491 C382.79 491 436.58 491 492 491 C492 383.09 492 275.18 492 164 C329.97 164 167.94 164 1 164 C1 380.15 1 596.3 1 819 C-53.12 819 -107.24 819 -163 819 C-163 602.52 -163 386.04 -163 163 C-109.21 163 -55.42 163 0 163 C0 109.21 0 55.42 0 0 Z " fill="#A175FC" transform="translate(163,24)"/>
<path d="M0 0 C289.44747082 0 289.44747082 0 337 44 C337.5151416 44.46599609 338.0302832 44.93199219 338.56103516 45.41210938 C361.98351086 66.73671326 377.50721411 96.95902469 383 128 C383.11569336 128.65291016 383.23138672 129.30582031 383.35058594 129.97851562 C390.09498826 170.44492957 381.32272004 212.44521104 358.03515625 246.1875 C329.26768467 285.94293097 288.33284498 305.47560138 241 314 C241.99966797 315.4540625 241.99966797 315.4540625 243.01953125 316.9375 C243.45869873 317.57631104 243.89786621 318.21512207 244.3503418 318.87329102 C245.34260954 320.31654437 246.33496266 321.75973902 247.32739258 323.20288086 C249.759253 326.73940366 252.19028632 330.27647798 254.6171875 333.81640625 C260.00473496 341.67071536 265.43012096 349.49781569 270.875 357.3125 C277.47770883 366.79055691 284.01978013 376.3082397 290.53125 385.84912109 C297.26187272 395.70563476 304.05236582 405.51947275 310.875 415.3125 C317.47766186 424.79058995 324.01977981 434.30823923 330.53125 443.84912109 C337.26187272 453.70563476 344.05236582 463.51947275 350.875 473.3125 C357.47464077 482.7862532 364.01390253 492.29946646 370.52246094 501.8359375 C372.82337322 505.20594518 375.12871413 508.5728824 377.4375 511.9375 C377.86820801 512.56672363 378.29891602 513.19594727 378.74267578 513.84423828 C381.39117739 517.70127005 384.08029862 521.52650113 386.796875 525.3359375 C387.76475952 526.69924194 387.76475952 526.69924194 388.75219727 528.09008789 C390.02275174 529.87739116 391.29910904 531.66058631 392.58178711 533.43920898 C393.44429077 534.65459351 393.44429077 534.65459351 394.32421875 535.89453125 C394.84072998 536.61487549 395.35724121 537.33521973 395.8894043 538.07739258 C397 540 397 540 397 543 C387.60321529 543.20889697 378.20723422 543.36862456 368.80863094 543.46630955 C364.44393113 543.51320446 360.08082406 543.57676043 355.71704102 543.67895508 C351.50234506 543.77703606 347.28917659 543.83061553 343.0734272 543.85389519 C341.46851109 543.87047481 339.86367503 543.90285514 338.25941277 543.95157051 C325.72003273 544.31706113 325.72003273 544.31706113 321.5406189 541.11680603 C319.73256535 538.82853049 318.34724338 536.58134161 317 534 C316.3409668 533.08017334 315.68193359 532.16034668 315.00292969 531.21264648 C314.48118164 530.43993408 313.95943359 529.66722168 313.421875 528.87109375 C312.8244751 527.9901001 312.2270752 527.10910645 311.61157227 526.20141602 C310.99725342 525.28932373 310.38293457 524.37723145 309.75 523.4375 C308.42079468 521.47641217 307.09136641 519.51547544 305.76171875 517.5546875 C305.1176709 516.60303711 304.47362305 515.65138672 303.81005859 514.67089844 C301.40743567 511.12561995 298.98948125 507.59113584 296.5625 504.0625 C296.13598145 503.44213867 295.70946289 502.82177734 295.27001953 502.18261719 C291.24323961 496.33591518 287.18288377 490.51263473 283.125 484.6875 C276.5223851 475.20937703 269.98022051 465.69176124 263.46875 456.15087891 C256.78044832 446.35634138 250.03215764 436.60475965 243.25 426.875 C237.3287109 418.37902439 231.47059354 409.84271425 225.64990234 401.27758789 C220.43726266 393.61729176 215.15083289 386.0099282 209.85083008 378.40991211 C204.00957636 370.02860998 198.23641425 361.60208256 192.47753906 353.1640625 C183.74614085 340.37570927 174.88054823 327.68649747 166 315 C131.35 314.67 96.7 314.34 61 314 C61 389.57 61 465.14 61 543 C40.87 543 20.74 543 0 543 C0 363.81 0 184.62 0 0 Z M61 56 C61 122.66 61 189.32 61 258 C99.48625 258.061875 99.48625 258.061875 138.75 258.125 C146.81663086 258.14320801 154.88326172 258.16141602 163.19433594 258.18017578 C170.49880897 258.18686943 170.49880897 258.18686943 177.80328369 258.19088745 C181.02743346 258.19273195 184.25151569 258.20015066 187.47564697 258.21115112 C226.86698054 258.33934776 263.76037481 257.034313 293.6875 227.875 C313.14865629 208.10890095 322.27328073 182.03371535 322.31689453 154.54248047 C321.92404135 126.3007015 310.02802881 101.15885939 289.890625 81.515625 C280.72090467 73.53549001 270.2682611 67.51014996 259 63 C258.0615625 62.62230469 257.123125 62.24460937 256.15625 61.85546875 C241.77400959 56.58066354 226.71011903 55.54827391 211.53466797 55.65942383 C209.85040877 55.66034611 208.16614841 55.6599368 206.48188972 55.65832806 C202.03248642 55.65765973 197.5833326 55.67485524 193.13398743 55.69615936 C188.93575383 55.71343649 184.73757631 55.71405903 180.53930664 55.71618652 C168.31783894 55.73183447 156.09641618 55.7737182 143.875 55.8125 C102.851875 55.9053125 102.851875 55.9053125 61 56 Z " fill="#FFFFFF" transform="translate(1129,190)"/>
<path d="M0 0 C36.71499505 33.72159279 57.11965713 85.13098602 59.87988281 134.17333984 C60.36262137 145.53339487 60.41098986 156.71208109 59 168 C-54.52 168 -168.04 168 -285 168 C-277.7780453 202.66538255 -268.48835102 230.45246425 -244 256 C-242.88238281 257.21236328 -242.88238281 257.21236328 -241.7421875 258.44921875 C-218.58065835 282.7955786 -183.75054004 297.71948895 -150.25634766 299.16113281 C-146.04569132 299.20715091 -141.8359123 299.24665855 -137.625 299.25 C-136.48200439 299.25101212 -136.48200439 299.25101212 -135.31591797 299.25204468 C-123.94793564 299.23604312 -113.06599368 298.75564941 -102 296 C-101.28070312 295.83371094 -100.56140625 295.66742187 -99.8203125 295.49609375 C-72.91300619 289.21151529 -51.10053459 275.63059754 -31 257 C-30.11054688 256.20916016 -30.11054688 256.20916016 -29.203125 255.40234375 C-17.90596963 244.88523006 -9.8374834 230.6749668 -3 217 C2.02117234 217.59610529 6.30274098 219.2132853 10.890625 221.23828125 C11.63528015 221.56032028 12.3799353 221.88235931 13.14715576 222.2141571 C15.51755171 223.24066833 17.88386889 224.2762012 20.25 225.3125 C23.35836515 226.66509002 26.46823287 228.01420655 29.578125 229.36328125 C30.31840942 229.68523468 31.05869385 230.00718811 31.82141113 230.33889771 C37.17469333 232.6612797 42.55709745 234.89474241 48 237 C47.22186513 241.37828696 45.73008484 244.92129811 43.625 248.8125 C43.2755835 249.4612207 42.92616699 250.10994141 42.56616211 250.77832031 C17.62701549 295.96868193 -25.75276711 330.60007681 -75.15087891 345.21386719 C-80.14618572 346.59217807 -85.18123946 347.73932021 -90.25 348.8125 C-91.17047119 349.00739014 -92.09094238 349.20228027 -93.03930664 349.40307617 C-107.87220146 352.34939836 -122.53547629 353.3820563 -137.625 353.3125 C-138.45216522 353.31067719 -139.27933044 353.30885437 -140.13156128 353.30697632 C-153.60378588 353.25720828 -166.74528324 352.5857896 -180 350 C-180.86753906 349.83371094 -181.73507813 349.66742187 -182.62890625 349.49609375 C-202.47845678 345.54957045 -221.20041655 338.57052969 -239 329 C-239.99128906 328.48695313 -240.98257813 327.97390625 -242.00390625 327.4453125 C-264.13870457 315.79541865 -284.8117546 298.89206767 -300 279 C-301.16015625 277.58074219 -301.16015625 277.58074219 -302.34375 276.1328125 C-323.14592865 250.26174854 -336.73824763 218.73317657 -342 186 C-342.17587646 184.95932373 -342.35175293 183.91864746 -342.53295898 182.84643555 C-344.21296913 171.86623584 -344.35752426 161.02502499 -344.3125 149.9375 C-344.31034485 148.9846814 -344.3081897 148.03186279 -344.30596924 147.0501709 C-344.25560729 133.18695342 -343.99845279 119.59136956 -341 106 C-340.80132324 105.08524902 -340.60264648 104.17049805 -340.39794922 103.22802734 C-334.44830904 76.72427443 -324.13023429 51.00714136 -308 29 C-307.23171875 27.948125 -306.4634375 26.89625 -305.671875 25.8125 C-299.9231259 18.08504791 -293.64206484 10.96630765 -287 4 C-286.27296875 3.22011719 -285.5459375 2.44023437 -284.796875 1.63671875 C-278.44931683 -4.98119838 -271.31601087 -10.50750593 -264 -16 C-263.16726562 -16.62777344 -262.33453125 -17.25554687 -261.4765625 -17.90234375 C-186.70100838 -72.13376099 -78.71473205 -66.42094125 0 0 Z M-249.09863281 45.37866211 C-262.47319711 60.77915211 -272.11027795 78.37118423 -278.625 97.6875 C-278.95580566 98.66638184 -279.28661133 99.64526367 -279.62744141 100.65380859 C-281.66699482 107.04775939 -282.29982032 111.99820321 -283 119 C-189.94 119 -96.88 119 -1 119 C-3.9238953 92.68494226 -16.42233307 66.72052738 -34 47 C-35.09441406 45.72576172 -35.09441406 45.72576172 -36.2109375 44.42578125 C-60.35447609 16.76660459 -94.60495116 0.91160391 -131 -2 C-175.89223343 -4.81834649 -218.95400186 11.76881743 -249.09863281 45.37866211 Z " fill="#FFFFFF" transform="translate(2906,387)"/>
<path d="M0 0 C36.71499505 33.72159279 57.11965713 85.13098602 59.87988281 134.17333984 C60.36262137 145.53339487 60.41098986 156.71208109 59 168 C-54.52 168 -168.04 168 -285 168 C-277.7780453 202.66538255 -268.48835102 230.45246425 -244 256 C-242.88238281 257.21236328 -242.88238281 257.21236328 -241.7421875 258.44921875 C-218.58065835 282.7955786 -183.75054004 297.71948895 -150.25634766 299.16113281 C-146.04569132 299.20715091 -141.8359123 299.24665855 -137.625 299.25 C-136.48200439 299.25101212 -136.48200439 299.25101212 -135.31591797 299.25204468 C-123.94793564 299.23604312 -113.06599368 298.75564941 -102 296 C-101.28070312 295.83371094 -100.56140625 295.66742187 -99.8203125 295.49609375 C-72.91300619 289.21151529 -51.10053459 275.63059754 -31 257 C-30.11054687 256.20916016 -30.11054687 256.20916016 -29.203125 255.40234375 C-17.90596963 244.88523006 -9.8374834 230.6749668 -3 217 C2.02117234 217.59610529 6.30274098 219.2132853 10.890625 221.23828125 C11.63528015 221.56032028 12.3799353 221.88235931 13.14715576 222.2141571 C15.51755171 223.24066833 17.88386889 224.2762012 20.25 225.3125 C23.35836515 226.66509002 26.46823287 228.01420655 29.578125 229.36328125 C30.31840942 229.68523468 31.05869385 230.00718811 31.82141113 230.33889771 C37.17469333 232.6612797 42.55709745 234.89474241 48 237 C47.22186513 241.37828696 45.73008484 244.92129811 43.625 248.8125 C43.2755835 249.4612207 42.92616699 250.10994141 42.56616211 250.77832031 C17.62701549 295.96868193 -25.75276711 330.60007681 -75.15087891 345.21386719 C-80.14618572 346.59217807 -85.18123946 347.73932021 -90.25 348.8125 C-91.17047119 349.00739014 -92.09094238 349.20228027 -93.03930664 349.40307617 C-107.87220146 352.34939836 -122.53547629 353.3820563 -137.625 353.3125 C-138.45216522 353.31067719 -139.27933044 353.30885437 -140.13156128 353.30697632 C-153.60378588 353.25720828 -166.74528324 352.5857896 -180 350 C-180.86753906 349.83371094 -181.73507812 349.66742187 -182.62890625 349.49609375 C-202.47845678 345.54957045 -221.20041655 338.57052969 -239 329 C-239.99128906 328.48695313 -240.98257812 327.97390625 -242.00390625 327.4453125 C-264.13870457 315.79541865 -284.8117546 298.89206767 -300 279 C-301.16015625 277.58074219 -301.16015625 277.58074219 -302.34375 276.1328125 C-323.14592865 250.26174854 -336.73824763 218.73317657 -342 186 C-342.17587646 184.95932373 -342.35175293 183.91864746 -342.53295898 182.84643555 C-344.21296913 171.86623584 -344.35752426 161.02502499 -344.3125 149.9375 C-344.31034485 148.9846814 -344.3081897 148.03186279 -344.30596924 147.0501709 C-344.25560729 133.18695342 -343.99845279 119.59136956 -341 106 C-340.80132324 105.08524902 -340.60264648 104.17049805 -340.39794922 103.22802734 C-334.44830904 76.72427443 -324.13023429 51.00714136 -308 29 C-307.23171875 27.948125 -306.4634375 26.89625 -305.671875 25.8125 C-299.9231259 18.08504791 -293.64206484 10.96630765 -287 4 C-286.27296875 3.22011719 -285.5459375 2.44023437 -284.796875 1.63671875 C-278.44931683 -4.98119838 -271.31601087 -10.50750593 -264 -16 C-263.16726563 -16.62777344 -262.33453125 -17.25554687 -261.4765625 -17.90234375 C-186.70100838 -72.13376099 -78.71473205 -66.42094125 0 0 Z M-249.09863281 45.37866211 C-262.47319711 60.77915211 -272.11027795 78.37118423 -278.625 97.6875 C-278.95580566 98.66638184 -279.28661133 99.64526367 -279.62744141 100.65380859 C-281.66699482 107.04775939 -282.29982032 111.99820321 -283 119 C-189.94 119 -96.88 119 -1 119 C-3.9238953 92.68494226 -16.42233307 66.72052738 -34 47 C-35.09441406 45.72576172 -35.09441406 45.72576172 -36.2109375 44.42578125 C-60.35447609 16.76660459 -94.60495116 0.91160391 -131 -2 C-175.89223343 -4.81834649 -218.95400186 11.76881743 -249.09863281 45.37866211 Z " fill="#FFFFFF" transform="translate(1906,387)"/>
<path d="M0 0 C9.40509531 -0.44288063 18.80654117 -0.77906089 28.21983528 -0.98443127 C32.59288015 -1.08308263 36.95873432 -1.21642675 41.32763672 -1.43334961 C69.44534584 -2.79322642 69.44534584 -2.79322642 76.90441895 1.78118896 C81.42923032 6.03372469 84.22326048 10.90397177 86.77400208 16.51268005 C88.83836872 20.70089296 91.68631773 24.29328148 94.5 28 C95.57781715 29.48828607 96.65246274 30.97887879 97.72265625 32.47265625 C102.8397038 39.55720782 108.04028279 46.58039098 113.23388672 53.60888672 C116.74312623 58.35999147 120.24461276 63.11681291 123.74755859 67.87255859 C126.67420749 71.84531489 129.60270774 75.81667846 132.53515625 79.78515625 C138.77471072 88.23340257 144.9706422 96.71006584 151.10791016 105.23291016 C155.01924443 110.6581567 158.96750233 116.0550515 162.9375 121.4375 C163.50944092 122.21351563 164.08138184 122.98953125 164.6706543 123.7890625 C167.75695484 127.97270474 170.85391253 132.14813094 173.9609375 136.31640625 C174.60554932 137.18402588 175.25016113 138.05164551 175.91430664 138.94555664 C177.15498589 140.61516783 178.39883447 142.28242982 179.64624023 143.94702148 C180.20255127 144.69669189 180.7588623 145.4463623 181.33203125 146.21875 C182.07030151 147.2077832 182.07030151 147.2077832 182.82348633 148.21679688 C184 150 184 150 185 153 C189.42612113 148.86235976 192.89379216 144.27667985 196.4375 139.375 C197.68875217 137.66142188 198.94005565 135.94788124 200.19140625 134.234375 C200.82578613 133.36232422 201.46016602 132.49027344 202.11376953 131.59179688 C205.02285783 127.59453032 207.9460046 123.60769636 210.875 119.625 C211.44661865 118.84753418 212.0182373 118.07006836 212.60717773 117.26904297 C217.67421528 110.3991269 222.85047644 103.615126 228.03857422 96.83642578 C233.00601796 90.33500665 237.87528503 83.76763115 242.70874023 77.16625977 C247.08782606 71.20041389 251.56077261 65.31118241 256.0625 59.4375 C261.51684649 52.3177042 266.83937102 45.12303962 272.0534668 37.82592773 C277.01115991 30.91703866 282.16429195 24.16284906 287.35742188 17.4296875 C287.98970703 16.60726563 288.62199219 15.78484375 289.2734375 14.9375 C289.82435059 14.22464844 290.37526367 13.51179688 290.94287109 12.77734375 C293.02328468 10.14498042 293.02328468 10.14498042 294.22077942 7.49966431 C295.89556031 4.42967886 297.35738716 2.30717797 300 0 C305.4036711 -1.40349115 310.68804077 -1.16841864 316.21484375 -0.9765625 C317.796631 -0.9578905 319.37847644 -0.94366566 320.96034241 -0.9336853 C325.1063961 -0.89566052 329.24889676 -0.79758817 333.39355469 -0.68664551 C337.62971934 -0.58399373 341.86646341 -0.53860225 346.10351562 -0.48828125 C354.40396708 -0.38131439 362.70154055 -0.21085501 371 0 C370.06818702 1.41323133 369.13425312 2.82506434 368.19946289 4.23632812 C367.67961319 5.02269653 367.15976349 5.80906494 366.62416077 6.6192627 C364.06058859 10.3770138 361.25761363 13.93309112 358.4375 17.5 C357.1973238 19.08156654 355.95775454 20.66360917 354.71875 22.24609375 C353.78675781 23.43501221 353.78675781 23.43501221 352.8359375 24.64794922 C350.01114032 28.26684497 347.22205647 31.9125995 344.4375 35.5625 C343.90785645 36.25633789 343.37821289 36.95017578 342.83251953 37.66503906 C341.76213969 39.06769553 340.69198981 40.47052751 339.62207031 41.87353516 C336.85494834 45.50111378 334.0838169 49.12562566 331.3125 52.75 C330.77061035 53.45874268 330.2287207 54.16748535 329.67041016 54.89770508 C324.00212358 62.30882195 318.31046697 69.70181993 312.6171875 77.09375 C307.33697791 83.95292902 302.07308252 90.82435741 296.81713867 97.70214844 C292.75360902 103.01824632 288.67605552 108.32330452 284.59375 113.625 C281.55392367 117.57677422 278.52726485 121.53860018 275.5 125.5 C269.22400115 133.71206547 262.92395531 141.90529082 256.6171875 150.09375 C251.34430586 156.94340976 246.08747403 163.80511813 240.83911133 170.67358398 C236.57962169 176.24641099 232.30559458 181.80785819 228.0234375 187.36328125 C227.35570313 188.23339844 226.68796875 189.10351562 226 190 C225.06027344 191.01126953 225.06027344 191.01126953 224.1015625 192.04296875 C222.74622433 193.9614816 222.74622433 193.9614816 223.4140625 196.23046875 C225.70245779 200.22670585 228.50013632 203.723325 231.375 207.3125 C232.65739657 208.93659532 233.93862727 210.56161183 235.21875 212.1875 C235.85941406 212.99960937 236.50007813 213.81171875 237.16015625 214.6484375 C239.78199445 217.99949184 242.33448599 221.39960124 244.875 224.8125 C249.48118844 230.98899758 254.13581818 237.12670795 258.8125 243.25 C264.20134844 250.3077155 269.55567076 257.38974421 274.875 264.5 C279.63465407 270.86065081 284.42851122 277.18959107 289.28515625 283.4765625 C297.60429125 294.25529566 305.84628295 305.09563141 314 316 C321.2664372 325.71752629 328.63818426 335.35466602 336 345 C338.81323956 348.68693647 341.6257844 352.3744012 344.4375 356.0625 C345.11087402 356.94574951 345.78424805 357.82899902 346.47802734 358.73901367 C350.64496664 364.20909302 354.78648366 369.69645969 358.89453125 375.2109375 C360.49906458 377.33642321 362.12026657 379.44237041 363.76171875 381.5390625 C364.22787598 382.13654297 364.6940332 382.73402344 365.17431641 383.34960938 C366.07994968 384.50785158 366.98960541 385.66296314 367.90380859 386.81445312 C371 390.77817046 371 390.77817046 371 393 C361.62056649 393.23225284 352.24213014 393.40965293 342.86044312 393.51812172 C338.50341867 393.57019772 334.14836851 393.64075466 329.79248047 393.75439453 C325.58422644 393.86348891 321.37786388 393.92292827 317.16830444 393.94877243 C315.56694765 393.9671745 313.9656884 394.00311495 312.36514282 394.05730057 C299.84706253 394.46402868 299.84706253 394.46402868 295.29568481 390.85649109 C293.24868951 388.32759563 291.61166904 385.82091532 290 383 C288.97190168 381.57284468 287.93039483 380.15510169 286.8671875 378.75390625 C285.8674578 377.3584399 284.87011881 375.96125815 283.875 374.5625 C282.74687484 372.98902303 281.61794126 371.41612541 280.48828125 369.84375 C279.91416504 369.04453125 279.34004883 368.2453125 278.74853516 367.421875 C275.88012865 363.44887967 272.97302254 359.50469811 270.0625 355.5625 C269.48161621 354.77560791 268.90073242 353.98871582 268.30224609 353.17797852 C267.12376198 351.58218924 265.94505086 349.98656758 264.76611328 348.39111328 C261.84043897 344.43008838 258.92049694 340.46484283 256 336.5 C254.8333611 334.91664621 253.66669442 333.33331288 252.5 331.75 C242 317.5 242 317.5 231.5 303.25 C230.92241943 302.46616943 230.34483887 301.68233887 229.74975586 300.87475586 C228.58379194 299.29231815 227.41793896 297.70979869 226.25219727 296.12719727 C223.32568557 292.15448113 220.39722466 288.18323006 217.46484375 284.21484375 C211.11583474 275.61819607 204.81373585 266.99101111 198.57128906 258.31665039 C194.12663078 252.15034309 189.59483203 246.055205 185 240 C180.61290137 244.1022221 177.19117272 248.63470565 173.6875 253.5 C168.52620993 260.59151743 163.27749732 267.60461409 157.9375 274.5625 C153.02532334 280.97361508 148.19804647 287.43033838 143.5 294 C138.14790822 301.48426653 132.60856487 308.81072965 127.01171875 316.11328125 C122.61055011 321.8634671 118.27768334 327.65745966 114 333.5 C109.05815342 340.24966699 104.02609686 346.92282702 98.9375 353.5625 C92.84210395 361.52200778 86.89597652 369.57345589 81.0625 377.7265625 C80.5930043 378.35588684 80.12350861 378.98521118 79.63978577 379.63360596 C77.925911 382.00881362 77.925911 382.00881362 76.51672363 384.78581238 C73.83270134 389.38062468 71.8485778 392.47762173 66.57958984 393.96655273 C62.31231177 394.27428657 58.17541312 394.24020825 53.90625 394.07421875 C52.34832275 394.05367336 50.79032387 394.03802894 49.2322998 394.02705383 C45.15327853 393.98527225 41.07864355 393.87744303 37.00134277 393.75531006 C32.83222804 393.6422876 28.66239625 393.59244073 24.4921875 393.53710938 C16.32612331 393.41952831 8.16360885 393.23208816 0 393 C0.73818416 389.71313566 1.69930173 387.77922758 3.80859375 385.12890625 C4.38552979 384.39663818 4.96246582 383.66437012 5.55688477 382.90991211 C6.48778931 381.74794312 6.48778931 381.74794312 7.4375 380.5625 C8.72683755 378.92990468 10.01589879 377.29709111 11.3046875 375.6640625 C12.25553223 374.46571777 12.25553223 374.46571777 13.22558594 373.24316406 C15.53156981 370.32800449 17.80019856 367.38670485 20.0625 364.4375 C21.24005859 362.90416016 21.24005859 362.90416016 22.44140625 361.33984375 C26.02452933 356.66515442 29.60069183 351.98513554 33.17724609 347.30541992 C38.89493691 339.82551959 44.63788005 332.36524427 50.3828125 324.90625 C55.0994732 318.77914093 59.80479311 312.64356812 64.5 306.5 C70.7760318 298.28795956 77.07604455 290.09470937 83.3828125 281.90625 C88.0994732 275.77914093 92.80479311 269.64356812 97.5 263.5 C103.7760318 255.28795956 110.07604455 247.09470937 116.3828125 238.90625 C121.6545074 232.05813187 126.91693025 225.20304344 132.15429688 218.32861328 C134.76149097 214.90958431 137.38187891 211.50396596 140.05078125 208.1328125 C140.75267578 207.24045898 140.75267578 207.24045898 141.46875 206.33007812 C142.73053399 204.72900629 143.99977924 203.13382258 145.26953125 201.5390625 C147.28158951 199.09894583 147.28158951 199.09894583 147 196 C145.23043002 193.46078829 143.41924208 191.04739549 141.5 188.625 C140.3029376 187.08758816 139.10634429 185.54981099 137.91015625 184.01171875 C137.27352051 183.19751465 136.63688477 182.38331055 135.98095703 181.54443359 C132.59950152 177.20113443 129.27009634 172.81832901 125.9375 168.4375 C125.256875 167.54434082 124.57625 166.65118164 123.875 165.73095703 C119.41229439 159.87097916 114.98121655 153.98837054 110.57128906 148.08862305 C106.47616997 142.61726416 102.33480531 137.1818689 98.1875 131.75 C92.79876942 124.69219358 87.44433019 117.61025705 82.125 110.5 C77.36534593 104.13934919 72.57148878 97.81040893 67.71484375 91.5234375 C58.90976142 80.11508401 50.19997341 68.63238023 41.57202148 57.08959961 C37.47665535 51.61791628 33.33499542 46.18223647 29.1875 40.75 C21.9513454 31.27068962 14.76972428 21.7512706 7.64355469 12.18896484 C6.51936134 10.6917103 5.3840199 9.20277894 4.23925781 7.72119141 C3.41312988 6.64683838 3.41312988 6.64683838 2.5703125 5.55078125 C2.07547363 4.91438721 1.58063477 4.27799316 1.07080078 3.62231445 C0 2 0 2 0 0 Z " fill="#FFFFFF" transform="translate(1987,340)"/>
<path d="M0 0 C19.47 0 38.94 0 59 0 C59 129.69 59 259.38 59 393 C39.53 393 20.06 393 0 393 C0 263.31 0 133.62 0 0 Z " fill="#FFFFFF" transform="translate(2420,340)"/>
<path d="M0 0 C7.87504543 6.75003894 7.87504543 6.75003894 10.32887936 9.20303822 C10.8931932 9.76474431 11.45750704 10.3264504 12.0389213 10.90517789 C12.63330124 11.50178855 13.22768118 12.09839922 13.84007263 12.71308899 C14.49125488 13.36271125 15.14243713 14.0123335 15.81335217 14.68164128 C17.97746983 16.84179541 20.13802543 19.005476 22.29858398 21.16918945 C23.85604005 22.7252895 25.41370856 24.28117695 26.97157288 25.83686829 C31.18823923 30.04898651 35.40174939 34.26424865 39.61455417 38.48022866 C44.02263036 42.89083928 48.43314882 47.29900661 52.84327698 51.70756531 C60.71514022 59.57749486 68.58448338 67.44993966 76.4528336 75.32338127 C83.59271187 82.46773621 90.73522108 89.6094521 97.87963867 96.74926758 C106.18086253 105.04514667 114.48041356 113.34269463 122.77748543 121.6427266 C127.16828768 126.03509123 131.55977083 130.42676936 135.95300102 134.8167057 C140.07646582 138.93729442 144.19750077 143.06029753 148.3166256 147.18522453 C149.83317313 148.70310057 151.35058382 150.22011473 152.86889267 151.73622894 C154.93117553 153.79580413 156.99039313 155.85839418 159.04881287 157.92182922 C159.65880786 158.52959349 160.26880285 159.13735777 160.89728254 159.76353914 C165 163.88584942 165 163.88584942 165 165 C110.55 165 56.1 165 0 165 C0 110.55 0 56.1 0 0 Z " fill="#A175FC" transform="translate(327,678)"/>
<path d="M0 0 C6.56236198 5.70695682 11.223907 13.42629868 12.25439453 22.15478516 C13.03652786 33.71515711 12.29873786 43.75266585 4.7890625 53.01953125 C-3.08482134 61.73581751 -11.59948886 67.38754246 -23.578125 68.16796875 C-35.35805215 68.25407933 -44.20764559 65.99674646 -53.234375 58.02734375 C-61.27158406 49.70309151 -64.4564701 40.8630586 -64.5625 29.4375 C-64.35191928 17.79409384 -61.7381552 9.74320545 -53.49609375 1.23046875 C-37.81939416 -12.77797486 -16.65473489 -12.30880239 0 0 Z " fill="#FFFFFF" transform="translate(2476,195)"/>
</svg>
